<svg xmlns="http://www.w3.org/2000/svg" viewBox="0 0 100 100" fill="none">
  <!-- Outer circle: gold top arc, blue bottom arc -->
  <path d="M 50 5 A 45 45 0 0 1 95 50" stroke="#f59e0b" stroke-width="5" stroke-linecap="round" fill="none"/>
  <path d="M 95 50 A 45 45 0 0 1 50 95" stroke="#2563eb" stroke-width="5" stroke-linecap="round" fill="none"/>
  <path d="M 50 95 A 45 45 0 0 1 5 50" stroke="#2563eb" stroke-width="5" stroke-linecap="round" fill="none"/>
  <path d="M 5 50 A 45 45 0 0 1 50 5" stroke="#f59e0b" stroke-width="5" stroke-linecap="round" fill="none"/>
  <!-- Up arrow (gold) -->
  <path d="M 60 30 L 70 40 L 64 40 L 64 60 L 56 60 L 56 40 L 50 40 Z" fill="#f59e0b"/>
  <!-- Down arrow (white) -->
  <path d="M 40 70 L 30 60 L 36 60 L 36 40 L 44 40 L 44 60 L 50 60 Z" fill="#f8fafc"/>
  <!-- B in the center -->
  <text x="50" y="58" font-family="Inter, sans-serif" font-size="22" font-weight="900" fill="#f8fafc" text-anchor="middle">B</text>
</svg>
